<svg xmlns="http://www.w3.org/2000/svg" xmlns:xlink="http://www.w3.org/1999/xlink" width="16" height="16" viewBox="0 0 16 16">
  <defs>
    <clipPath id="clip-path">
      <rect id="사각형_12485" data-name="사각형 12485" width="16" height="16" transform="translate(-18287 -18563)" fill="#808e97" stroke="#707070" stroke-width="1"/>
    </clipPath>
  </defs>
  <g id="마스크_그룹_295" data-name="마스크 그룹 295" transform="translate(18287 18563)" clip-path="url(#clip-path)">
    <g id="spatial_audio_off_24dp_FFFFFF" transform="translate(-18287 -18563)">
      <g id="그룹_24267" data-name="그룹 24267">
        <rect id="사각형_12484" data-name="사각형 12484" width="16" height="16" fill="none"/>
      </g>
      <g id="그룹_24269" data-name="그룹 24269">
        <g id="그룹_24268" data-name="그룹 24268">
          <circle id="타원_99" data-name="타원 99" cx="2.667" cy="2.667" r="2.667" transform="translate(4 3.333)" fill="#808e97"/>
          <path id="패스_9267" data-name="패스 9267" d="M10.927,10.373a9.245,9.245,0,0,0-8.52,0,1.981,1.981,0,0,0-1.073,1.773V14H12V12.147A1.981,1.981,0,0,0,10.927,10.373Z" fill="#808e97"/>
          <path id="패스_9268" data-name="패스 9268" d="M13.573.667l-.94.94a4.672,4.672,0,0,1,0,6.6l.94.94A5.987,5.987,0,0,0,13.573.667Z" fill="#808e97"/>
          <path id="패스_9269" data-name="패스 9269" d="M11.693,7.267a3.336,3.336,0,0,0,0-4.713l-.94.94a2,2,0,0,1,0,2.827Z" fill="#808e97"/>
        </g>
      </g>
    </g>
  </g>
</svg>
